<?xml version="1.0" encoding="UTF-8" standalone="no"?>
<!DOCTYPE svg PUBLIC "-//W3C//DTD SVG 1.1//EN"
 "http://www.w3.org/Graphics/SVG/1.1/DTD/svg11.dtd">
<!-- Generated by graphviz version 2.38.0 (20140413.2041)
 -->
<!-- Title: %3 Pages: 1 -->
<svg width="597pt" height="230pt"
 viewBox="0.00 0.00 597.00 230.00" xmlns="http://www.w3.org/2000/svg" xmlns:xlink="http://www.w3.org/1999/xlink">
<g id="graph0" class="graph" transform="scale(1 1) rotate(0) translate(4 226)">
<title>%3</title>
<polygon fill="white" stroke="none" points="-4,4 -4,-226 593,-226 593,4 -4,4"/>
<text text-anchor="middle" x="294.5" y="-7.8" font-family="Times New Roman,serif" font-size="14.00">AWS Resumé Challenge: Fig 2.</text>
<g id="clust1" class="cluster"><title>cluster_AWS</title>
<polygon fill="none" stroke="black" points="8,-31 8,-214 572,-214 572,-31 8,-31"/>
<text text-anchor="middle" x="290" y="-198.8" font-family="Times New Roman,serif" font-size="14.00">Resumé Load&#45;Count Design</text>
</g>
<!-- Browser -->
<g id="node1" class="node"><title>Browser</title>
<polygon fill="none" stroke="black" points="85,-183 16,-183 16,-39 85,-39 85,-183"/>
<text text-anchor="middle" x="50.5" y="-107.3" font-family="Arial" font-size="14.00">Browser</text>
</g>
<!-- APIGateway -->
<g id="node2" class="node"><title>APIGateway</title>
<polygon fill="none" stroke="black" points="253,-183 158,-183 158,-39 253,-39 253,-183"/>
<text text-anchor="middle" x="205.5" y="-107.3" font-family="Arial" font-size="14.00">APIGateway</text>
</g>
<!-- Browser&#45;&gt;APIGateway -->
<g id="edge1" class="edge"><title>Browser&#45;&gt;APIGateway</title>
<path fill="none" stroke="black" d="M85.0765,-111C103.446,-111 126.698,-111 147.793,-111"/>
<polygon fill="none" stroke="black" points="147.945,-114.5 157.945,-111 147.945,-107.5 147.945,-114.5"/>
<text text-anchor="middle" x="139.819" y="-122.052" font-family="Arial" font-size="8.00">HTTPS</text>
<text text-anchor="middle" x="139.819" y="-113.052" font-family="Arial" font-size="8.00">GET </text>
</g>
<!-- LAMBDA -->
<g id="node3" class="node"><title>LAMBDA</title>
<polygon fill="none" stroke="black" points="402,-183 326,-183 326,-39 402,-39 402,-183"/>
<text text-anchor="middle" x="364" y="-107.3" font-family="Arial" font-size="14.00">LAMBDA</text>
</g>
<!-- APIGateway&#45;&gt;LAMBDA -->
<g id="edge2" class="edge"><title>APIGateway&#45;&gt;LAMBDA</title>
<path fill="none" stroke="black" d="M253.031,-111C272.827,-111 295.883,-111 315.755,-111"/>
<polygon fill="none" stroke="black" points="315.823,-114.5 325.823,-111 315.823,-107.5 315.823,-114.5"/>
<text text-anchor="middle" x="307.697" y="-117.552" font-family="Arial" font-size="8.00">trigger</text>
<text text-anchor="middle" x="271.158" y="-100.648" font-family="Arial" font-size="8.00">REST</text>
<text text-anchor="middle" x="271.158" y="-91.6476" font-family="Arial" font-size="8.00">API</text>
</g>
<!-- DynamoDB -->
<g id="node4" class="node"><title>DynamoDB</title>
<polygon fill="none" stroke="black" points="564,-183 475,-183 475,-39 564,-39 564,-183"/>
<text text-anchor="middle" x="519.5" y="-107.3" font-family="Arial" font-size="14.00">DynamoDB</text>
</g>
<!-- LAMBDA&#45;&gt;DynamoDB -->
<g id="edge3" class="edge"><title>LAMBDA&#45;&gt;DynamoDB</title>
<path fill="none" stroke="black" d="M402.158,-105.122C420.906,-104.215 443.995,-104.015 464.649,-104.524"/>
<polygon fill="none" stroke="black" points="464.771,-108.03 474.876,-104.843 464.989,-101.033 464.771,-108.03"/>
<text text-anchor="middle" x="457.876" y="-89.4431" font-family="Arial" font-size="8.00">set count</text>
<text text-anchor="middle" x="457.876" y="-80.4431" font-family="Arial" font-size="8.00"> </text>
</g>
<!-- LAMBDA&#45;&gt;DynamoDB -->
<g id="edge4" class="edge"><title>LAMBDA&#45;&gt;DynamoDB</title>
<path fill="none" stroke="black" d="M402.158,-116.878C420.906,-117.785 443.995,-117.985 464.649,-117.476"/>
<polygon fill="none" stroke="black" points="464.989,-120.967 474.876,-117.157 464.771,-113.97 464.989,-120.967"/>
<text text-anchor="middle" x="457.876" y="-128.757" font-family="Arial" font-size="8.00">get count</text>
<text text-anchor="middle" x="457.876" y="-119.757" font-family="Arial" font-size="8.00"> </text>
</g>
</g>
</svg>
