<?xml version="1.0" encoding="UTF-8" standalone="no"?>
<!DOCTYPE svg PUBLIC "-//W3C//DTD SVG 1.1//EN"
 "http://www.w3.org/Graphics/SVG/1.1/DTD/svg11.dtd">
<!-- Generated by graphviz version 2.38.0 (20140413.2041)
 -->
<!-- Title: %3 Pages: 1 -->
<svg width="814pt" height="232pt"
 viewBox="0.00 0.00 813.50 232.00" xmlns="http://www.w3.org/2000/svg" xmlns:xlink="http://www.w3.org/1999/xlink">
<g id="graph0" class="graph" transform="scale(1 1) rotate(0) translate(4 228)">
<title>%3</title>
<polygon fill="white" stroke="none" points="-4,4 -4,-228 809.5,-228 809.5,4 -4,4"/>
<text text-anchor="middle" x="402.75" y="-7.8" font-family="Times New Roman,serif" font-size="14.00">AWS Resumé Challenge: Fig 4</text>
<g id="clust1" class="cluster"><title>cluster_AWS</title>
<polygon fill="none" stroke="black" points="8,-31 8,-216 749,-216 749,-31 8,-31"/>
<text text-anchor="middle" x="378.5" y="-200.8" font-family="Times New Roman,serif" font-size="14.00">Resumé Load&#45;Count Implementation</text>
</g>
<!-- Browser -->
<g id="node1" class="node"><title>Browser</title>
<polygon fill="none" stroke="black" points="16,-40 16,-184 170,-184 170,-40 16,-40"/>
<text text-anchor="middle" x="93" y="-159.3" font-family="Arial" font-size="14.00">Browser</text>
<polyline fill="none" stroke="black" points="16,-142 170,-142 "/>
<text text-anchor="middle" x="93" y="-117.3" font-family="Arial" font-size="14.00">XMLHttpRequest to </text>
<text text-anchor="middle" x="93" y="-102.3" font-family="Arial" font-size="14.00">https://pj00kkggj8.</text>
<text text-anchor="middle" x="93" y="-87.3" font-family="Arial" font-size="14.00">execute&#45;api.</text>
<text text-anchor="middle" x="93" y="-72.3" font-family="Arial" font-size="14.00">ap&#45;southeast&#45;2.</text>
<text text-anchor="middle" x="93" y="-57.3" font-family="Arial" font-size="14.00">amazonaws.com/beta</text>
</g>
<!-- APIGateway -->
<g id="node2" class="node"><title>APIGateway</title>
<polygon fill="none" stroke="black" points="243,-40 243,-184 369,-184 369,-40 243,-40"/>
<text text-anchor="middle" x="306" y="-144.3" font-family="Arial" font-size="14.00">APIGateway</text>
<polyline fill="none" stroke="black" points="243,-112 369,-112 "/>
<text text-anchor="middle" x="306" y="-72.3" font-family="Arial" font-size="14.00">counterupdateapi</text>
</g>
<!-- Browser&#45;&gt;APIGateway -->
<g id="edge1" class="edge"><title>Browser&#45;&gt;APIGateway</title>
<path fill="none" stroke="black" d="M170.176,-105.487C190.574,-105.149 212.562,-105.172 232.742,-105.557"/>
<polygon fill="none" stroke="black" points="232.723,-109.057 242.799,-105.783 232.88,-102.059 232.723,-109.057"/>
<text text-anchor="middle" x="224.487" y="-107.426" font-family="Arial" font-size="8.00">HTTPS</text>
<text text-anchor="middle" x="224.487" y="-98.4261" font-family="Arial" font-size="8.00">GET </text>
</g>
<!-- APIGateway&#45;&gt;Browser -->
<g id="edge2" class="edge"><title>APIGateway&#45;&gt;Browser</title>
<path fill="none" stroke="black" d="M242.799,-118.217C223.237,-118.726 201.273,-118.871 180.349,-118.65"/>
<polygon fill="none" stroke="black" points="180.222,-115.148 170.176,-118.513 180.128,-122.148 180.222,-115.148"/>
<text text-anchor="middle" x="226.676" y="-130.113" font-family="Arial" font-size="8.00">Access&#45;Control&#45;Allow&#45;Origin: *</text>
</g>
<!-- LAMBDA -->
<g id="node3" class="node"><title>LAMBDA</title>
<polygon fill="none" stroke="black" points="442,-40 442,-184 579,-184 579,-40 442,-40"/>
<text text-anchor="middle" x="510.5" y="-144.3" font-family="Arial" font-size="14.00">LAMBDA</text>
<polyline fill="none" stroke="black" points="442,-112 579,-112 "/>
<text text-anchor="middle" x="510.5" y="-72.3" font-family="Arial" font-size="14.00">mygatewayfunction</text>
</g>
<!-- APIGateway&#45;&gt;LAMBDA -->
<g id="edge3" class="edge"><title>APIGateway&#45;&gt;LAMBDA</title>
<path fill="none" stroke="black" d="M369.133,-112C388.915,-112 411.052,-112 431.794,-112"/>
<polygon fill="none" stroke="black" points="431.847,-115.5 441.847,-112 431.847,-108.5 431.847,-115.5"/>
<text text-anchor="middle" x="423.721" y="-118.552" font-family="Arial" font-size="8.00">trigger</text>
<text text-anchor="middle" x="387.259" y="-101.648" font-family="Arial" font-size="8.00">REST</text>
<text text-anchor="middle" x="387.259" y="-92.6476" font-family="Arial" font-size="8.00">API</text>
</g>
<!-- DynamoDB -->
<g id="node4" class="node"><title>DynamoDB</title>
<polygon fill="none" stroke="black" points="652,-40 652,-184 741,-184 741,-40 652,-40"/>
<text text-anchor="middle" x="696.5" y="-144.3" font-family="Arial" font-size="14.00">DynamoDB</text>
<polyline fill="none" stroke="black" points="652,-112 741,-112 "/>
<text text-anchor="middle" x="696.5" y="-72.3" font-family="Arial" font-size="14.00">visitcount</text>
</g>
<!-- LAMBDA&#45;&gt;DynamoDB -->
<g id="edge4" class="edge"><title>LAMBDA&#45;&gt;DynamoDB</title>
<path fill="none" stroke="black" d="M579.231,-105.463C599.816,-105.094 622.148,-105.205 641.686,-105.796"/>
<polygon fill="none" stroke="black" points="641.805,-109.302 651.923,-106.161 642.055,-102.307 641.805,-109.302"/>
<text text-anchor="middle" x="634.923" y="-90.7613" font-family="Arial" font-size="8.00">set count</text>
<text text-anchor="middle" x="634.923" y="-81.7613" font-family="Arial" font-size="8.00"> </text>
</g>
<!-- LAMBDA&#45;&gt;DynamoDB -->
<g id="edge5" class="edge"><title>LAMBDA&#45;&gt;DynamoDB</title>
<path fill="none" stroke="black" d="M579.231,-118.537C599.816,-118.906 622.148,-118.795 641.686,-118.204"/>
<polygon fill="none" stroke="black" points="642.055,-121.693 651.923,-117.839 641.805,-114.698 642.055,-121.693"/>
<text text-anchor="middle" x="634.923" y="-129.439" font-family="Arial" font-size="8.00">get count</text>
<text text-anchor="middle" x="634.923" y="-120.439" font-family="Arial" font-size="8.00"> </text>
</g>
</g>
</svg>
