<?xml version="1.0" encoding="UTF-8" standalone="no"?>
<!DOCTYPE svg PUBLIC "-//W3C//DTD SVG 1.1//EN"
 "http://www.w3.org/Graphics/SVG/1.1/DTD/svg11.dtd">
<!-- Generated by graphviz version 2.38.0 (20140413.2041)
 -->
<!-- Title: %3 Pages: 1 -->
<svg width="503pt" height="176pt"
 viewBox="0.00 0.00 503.00 176.00" xmlns="http://www.w3.org/2000/svg" xmlns:xlink="http://www.w3.org/1999/xlink">
<g id="graph0" class="graph" transform="scale(1 1) rotate(0) translate(4 172)">
<title>%3</title>
<polygon fill="white" stroke="none" points="-4,4 -4,-172 499,-172 499,4 -4,4"/>
<text text-anchor="middle" x="247.5" y="-7.8" font-family="Times New Roman,serif" font-size="14.00">AWS Resume Challenge: Fig 1</text>
<g id="clust1" class="cluster"><title>cluster_AWS</title>
<polygon fill="none" stroke="black" points="8,-31 8,-160 487,-160 487,-31 8,-31"/>
<text text-anchor="middle" x="247.5" y="-144.8" font-family="Times New Roman,serif" font-size="14.00">AWS Service Interaction</text>
</g>
<!-- Browser -->
<g id="node1" class="node"><title>Browser</title>
<polygon fill="none" stroke="black" points="85,-93 16,-93 16,-57 85,-57 85,-93"/>
<text text-anchor="middle" x="50.5" y="-71.3" font-family="Arial" font-size="14.00">Browser</text>
</g>
<!-- Route53 -->
<g id="node2" class="node"><title>Route53</title>
<polygon fill="none" stroke="black" points="229,-80 158,-80 158,-44 229,-44 229,-80"/>
<text text-anchor="middle" x="193.5" y="-58.3" font-family="Arial" font-size="14.00">Route53</text>
</g>
<!-- Browser&#45;&gt;Route53 -->
<g id="edge1" class="edge"><title>Browser&#45;&gt;Route53</title>
<path fill="none" stroke="black" d="M85.273,-71.8862C103.866,-70.1719 127.188,-68.0216 147.329,-66.1647"/>
<polygon fill="none" stroke="black" points="147.894,-69.6276 157.53,-65.2242 147.251,-62.6571 147.894,-69.6276"/>
<text text-anchor="middle" x="136.03" y="-58.8242" font-family="Arial" font-size="8.00">get</text>
<text text-anchor="middle" x="136.03" y="-49.8242" font-family="Arial" font-size="8.00">IP Address </text>
</g>
<!-- CloudFront -->
<g id="node3" class="node"><title>CloudFront</title>
<polygon fill="none" stroke="black" points="352,-87 265,-87 265,-51 352,-51 352,-87"/>
<text text-anchor="middle" x="308.5" y="-65.3" font-family="Arial" font-size="14.00">CloudFront</text>
</g>
<!-- Browser&#45;&gt;CloudFront -->
<g id="edge3" class="edge"><title>Browser&#45;&gt;CloudFront</title>
<path fill="none" stroke="black" d="M85.2917,-81.7394C121.073,-87.924 179.159,-95.2494 229,-89 237.425,-87.9436 246.242,-86.2731 254.798,-84.3369"/>
<polygon fill="none" stroke="black" points="255.777,-87.7014 264.683,-81.9627 254.142,-80.895 255.777,-87.7014"/>
<text text-anchor="middle" x="254.183" y="-75.5627" font-family="Arial" font-size="8.00">get</text>
<text text-anchor="middle" x="254.183" y="-66.5627" font-family="Arial" font-size="8.00">HTML</text>
</g>
<!-- Route53&#45;&gt;CloudFront -->
<!-- S3 -->
<g id="node4" class="node"><title>S3</title>
<polygon fill="none" stroke="black" points="479,-75 425,-75 425,-39 479,-39 479,-75"/>
<text text-anchor="middle" x="452" y="-53.3" font-family="Arial" font-size="14.00">S3</text>
</g>
<!-- CloudFront&#45;&gt;S3 -->
<g id="edge4" class="edge"><title>CloudFront&#45;&gt;S3</title>
<path fill="none" stroke="black" d="M352.339,-65.367C372.242,-63.6791 395.655,-61.6936 414.678,-60.0803"/>
<polygon fill="none" stroke="black" points="415.075,-63.5593 424.744,-59.2267 414.484,-56.5843 415.075,-63.5593"/>
<text text-anchor="middle" x="409.244" y="-52.8267" font-family="Arial" font-size="8.00">get</text>
<text text-anchor="middle" x="409.244" y="-43.8267" font-family="Arial" font-size="8.00">Content </text>
</g>
<!-- ACM -->
<g id="node5" class="node"><title>ACM</title>
<polygon fill="none" stroke="black" points="479,-129 425,-129 425,-93 479,-93 479,-129"/>
<text text-anchor="middle" x="452" y="-107.3" font-family="Arial" font-size="14.00">ACM</text>
</g>
<!-- CloudFront&#45;&gt;ACM -->
<g id="edge5" class="edge"><title>CloudFront&#45;&gt;ACM</title>
<path fill="none" stroke="black" d="M352.339,-81.7154C372.334,-87.6504 395.872,-94.6369 414.941,-100.297"/>
<polygon fill="none" stroke="black" points="414.161,-103.716 424.744,-103.207 416.153,-97.0057 414.161,-103.716"/>
<text text-anchor="middle" x="404.744" y="-96.8066" font-family="Arial" font-size="8.00">get</text>
<text text-anchor="middle" x="404.744" y="-87.8066" font-family="Arial" font-size="8.00">Certificate </text>
</g>
</g>
</svg>
